<svg width="190" height="183" viewBox="0 0 190 183" fill="none" xmlns="http://www.w3.org/2000/svg">
<path d="M95 2C146.434 2 188 42.1406 188 91.5C188 140.859 146.434 181 95 181C43.5661 181 2 140.859 2 91.5C2 42.1406 43.5661 2 95 2Z" stroke="#28A0AB" stroke-width="4"/>
<path d="M143.061 24.3696C143.061 24.3696 149.321 27.5811 159.062 37.3695C168.183 46.5352 173.062 59.8696 173.062 59.8696" stroke="#28A0AB" stroke-width="4" stroke-linecap="round"/>
<path d="M95 2C146.434 2 188 42.1406 188 91.5C188 140.859 146.434 181 95 181C43.5661 181 2 140.859 2 91.5C2 42.1406 43.5661 2 95 2Z" stroke="#28A0AB" stroke-width="4"/>
<path d="M143.061 24.3696C143.061 24.3696 149.321 27.5811 159.062 37.3695C168.183 46.5352 173.062 59.8696 173.062 59.8696" stroke="#28A0AB" stroke-width="4" stroke-linecap="round"/>
</svg>
